<svg width="164" height="38" viewBox="0 0 164 38" fill="none" xmlns="http://www.w3.org/2000/svg">
<g filter="url(#filter0_d_31112_1626)">
<mask id="path-1-outside-1_31112_1626" maskUnits="userSpaceOnUse" x="4" y="0.832031" width="156" height="29" fill="black">
<rect fill="white" x="4" y="0.832031" width="156" height="29"/>
<path d="M21.704 9.51203H21.608L19.976 12.776L15.624 20.68L11.368 12.808L9.672 9.28803H9.576V24.168H5V1.83203H10.152L15.624 12.296H15.688L21.096 1.83203H26.28V24.168H21.704V9.51203Z"/>
<path d="M37.7788 24.552C36.5414 24.552 35.4321 24.3494 34.4508 23.944C33.4908 23.5387 32.6694 22.952 31.9867 22.184C31.3254 21.416 30.8134 20.488 30.4508 19.4C30.0881 18.312 29.9067 17.096 29.9067 15.752C29.9067 14.408 30.0881 13.192 30.4508 12.104C30.8134 11.016 31.3254 10.0987 31.9867 9.35203C32.6694 8.58403 33.4908 7.99736 34.4508 7.59203C35.4321 7.1867 36.5414 6.98403 37.7788 6.98403C39.0161 6.98403 40.1147 7.1867 41.0747 7.59203C42.0561 7.99736 42.8774 8.58403 43.5387 9.35203C44.2214 10.0987 44.7441 11.016 45.1068 12.104C45.4694 13.192 45.6507 14.408 45.6507 15.752C45.6507 17.096 45.4694 18.312 45.1068 19.4C44.7441 20.488 44.2214 21.416 43.5387 22.184C42.8774 22.952 42.0561 23.5387 41.0747 23.944C40.1147 24.3494 39.0161 24.552 37.7788 24.552ZM37.7788 20.808C38.7174 20.808 39.4427 20.52 39.9548 19.944C40.4667 19.368 40.7228 18.5467 40.7228 17.48V14.056C40.7228 12.9894 40.4667 12.168 39.9548 11.592C39.4427 11.016 38.7174 10.728 37.7788 10.728C36.8401 10.728 36.1148 11.016 35.6028 11.592C35.0908 12.168 34.8348 12.9894 34.8348 14.056V17.48C34.8348 18.5467 35.0908 19.368 35.6028 19.944C36.1148 20.52 36.8401 20.808 37.7788 20.808Z"/>
<path d="M54.7257 24.168C53.0831 24.168 51.8351 23.752 50.9818 22.92C50.1498 22.088 49.7337 20.872 49.7337 19.272V11.048H47.3657V7.36803H48.5498C49.1898 7.36803 49.6271 7.2187 49.8618 6.92003C50.0964 6.60003 50.2137 6.15203 50.2137 5.57603V2.82403H54.4697V7.36803H57.7977V11.048H54.4697V20.488H57.5418V24.168H54.7257Z"/>
<path d="M67.7788 24.552C66.5414 24.552 65.4321 24.3494 64.4507 23.944C63.4907 23.5387 62.6694 22.952 61.9868 22.184C61.3254 21.416 60.8134 20.488 60.4507 19.4C60.0881 18.312 59.9067 17.096 59.9067 15.752C59.9067 14.408 60.0881 13.192 60.4507 12.104C60.8134 11.016 61.3254 10.0987 61.9868 9.35203C62.6694 8.58403 63.4907 7.99736 64.4507 7.59203C65.4321 7.1867 66.5414 6.98403 67.7788 6.98403C69.0161 6.98403 70.1148 7.1867 71.0748 7.59203C72.0561 7.99736 72.8774 8.58403 73.5387 9.35203C74.2214 10.0987 74.7441 11.016 75.1068 12.104C75.4694 13.192 75.6507 14.408 75.6507 15.752C75.6507 17.096 75.4694 18.312 75.1068 19.4C74.7441 20.488 74.2214 21.416 73.5387 22.184C72.8774 22.952 72.0561 23.5387 71.0748 23.944C70.1148 24.3494 69.0161 24.552 67.7788 24.552ZM67.7788 20.808C68.7174 20.808 69.4427 20.52 69.9548 19.944C70.4667 19.368 70.7227 18.5467 70.7227 17.48V14.056C70.7227 12.9894 70.4667 12.168 69.9548 11.592C69.4427 11.016 68.7174 10.728 67.7788 10.728C66.8401 10.728 66.1147 11.016 65.6027 11.592C65.0907 12.168 64.8348 12.9894 64.8348 14.056V17.48C64.8348 18.5467 65.0907 19.368 65.6027 19.944C66.1147 20.52 66.8401 20.808 67.7788 20.808Z"/>
<path d="M79.0253 24.168V7.36803H83.7613V11.016H83.9212C84.0066 10.5467 84.1559 10.0987 84.3692 9.67203C84.5826 9.22403 84.8599 8.82936 85.2012 8.48803C85.5639 8.1467 85.9906 7.88003 86.4812 7.68803C86.9719 7.4747 87.5479 7.36803 88.2093 7.36803H89.0413V11.784H87.8573C86.4706 11.784 85.4359 11.9654 84.7533 12.328C84.0919 12.6907 83.7613 13.3627 83.7613 14.344V24.168H79.0253Z"/>
<path d="M97.6588 24.552C96.0374 24.552 94.6721 24.296 93.5628 23.784C92.4534 23.2507 91.4614 22.504 90.5867 21.544L93.3708 18.728C93.9681 19.3894 94.6294 19.912 95.3548 20.296C96.0801 20.68 96.9014 20.872 97.8187 20.872C98.7574 20.872 99.4081 20.7334 99.7708 20.456C100.133 20.1574 100.315 19.7627 100.315 19.272C100.315 18.4827 99.7494 18.0134 98.6188 17.864L96.7948 17.64C93.0188 17.1707 91.1308 15.4427 91.1308 12.456C91.1308 11.6454 91.2801 10.9094 91.5788 10.248C91.8988 9.56536 92.3361 8.98936 92.8907 8.52003C93.4667 8.02936 94.1494 7.65603 94.9388 7.40003C95.7494 7.1227 96.6561 6.98403 97.6588 6.98403C98.5334 6.98403 99.3014 7.04803 99.9628 7.17603C100.645 7.2827 101.243 7.45336 101.755 7.68803C102.288 7.90136 102.768 8.1787 103.195 8.52003C103.643 8.84003 104.08 9.2027 104.507 9.60803L101.787 12.392C101.253 11.8587 100.645 11.4427 99.9628 11.144C99.3014 10.824 98.6187 10.664 97.9147 10.664C97.1041 10.664 96.5281 10.792 96.1868 11.048C95.8454 11.304 95.6748 11.6454 95.6748 12.072C95.6748 12.52 95.7921 12.872 96.0267 13.128C96.2827 13.3627 96.7521 13.5334 97.4348 13.64L99.3228 13.896C103.013 14.3867 104.859 16.072 104.859 18.952C104.859 19.7627 104.688 20.5094 104.347 21.192C104.005 21.8747 103.515 22.472 102.875 22.984C102.256 23.4747 101.499 23.8587 100.603 24.136C99.7281 24.4134 98.7468 24.552 97.6588 24.552Z"/>
<path d="M118.382 24.408C117.369 24.408 116.516 24.248 115.822 23.928C115.129 23.5947 114.509 23.128 113.962 22.528L115.702 20.768C116.076 21.1814 116.489 21.508 116.942 21.748C117.396 21.988 117.909 22.108 118.482 22.108C119.069 22.108 119.476 22.0214 119.702 21.848C119.929 21.6614 120.042 21.4147 120.042 21.108C120.042 20.6147 119.689 20.3214 118.982 20.228L117.842 20.088C115.482 19.7947 114.302 18.7147 114.302 16.848C114.302 16.3414 114.396 15.8814 114.582 15.468C114.782 15.0414 115.056 14.6814 115.402 14.388C115.762 14.0814 116.189 13.848 116.682 13.688C117.189 13.5147 117.756 13.428 118.382 13.428C118.929 13.428 119.409 13.468 119.822 13.548C120.249 13.6147 120.622 13.7214 120.942 13.868C121.276 14.0014 121.576 14.1747 121.842 14.388C122.122 14.588 122.396 14.8147 122.662 15.068L120.962 16.808C120.629 16.4747 120.249 16.2147 119.822 16.028C119.409 15.828 118.982 15.728 118.542 15.728C118.036 15.728 117.676 15.808 117.462 15.968C117.249 16.128 117.142 16.3414 117.142 16.608C117.142 16.888 117.216 17.108 117.362 17.268C117.522 17.4147 117.816 17.5214 118.242 17.588L119.422 17.748C121.729 18.0547 122.882 19.108 122.882 20.908C122.882 21.4147 122.776 21.8814 122.562 22.308C122.349 22.7347 122.042 23.108 121.642 23.428C121.256 23.7347 120.782 23.9747 120.222 24.148C119.676 24.3214 119.062 24.408 118.382 24.408Z"/>
<path d="M124.9 9.36803H127.86V15.448H127.98C128.167 14.9014 128.494 14.428 128.96 14.028C129.427 13.628 130.074 13.428 130.9 13.428C131.98 13.428 132.794 13.788 133.34 14.508C133.9 15.228 134.18 16.2547 134.18 17.588V24.168H131.22V17.828C131.22 17.148 131.114 16.648 130.9 16.328C130.687 15.9947 130.307 15.828 129.76 15.828C129.52 15.828 129.287 15.8614 129.06 15.928C128.834 15.9814 128.627 16.0747 128.44 16.208C128.267 16.3414 128.127 16.508 128.02 16.708C127.914 16.8947 127.86 17.1147 127.86 17.368V24.168H124.9V9.36803Z"/>
<path d="M141.074 24.408C140.301 24.408 139.608 24.2814 138.994 24.028C138.394 23.7747 137.881 23.408 137.454 22.928C137.041 22.448 136.721 21.868 136.494 21.188C136.268 20.508 136.154 19.748 136.154 18.908C136.154 18.068 136.268 17.308 136.494 16.628C136.721 15.948 137.041 15.3747 137.454 14.908C137.881 14.428 138.394 14.0614 138.994 13.808C139.608 13.5547 140.301 13.428 141.074 13.428C141.848 13.428 142.534 13.5547 143.134 13.808C143.748 14.0614 144.261 14.428 144.674 14.908C145.101 15.3747 145.428 15.948 145.654 16.628C145.881 17.308 145.994 18.068 145.994 18.908C145.994 19.748 145.881 20.508 145.654 21.188C145.428 21.868 145.101 22.448 144.674 22.928C144.261 23.408 143.748 23.7747 143.134 24.028C142.534 24.2814 141.848 24.408 141.074 24.408ZM141.074 22.068C141.661 22.068 142.114 21.888 142.434 21.528C142.754 21.168 142.914 20.6547 142.914 19.988V17.848C142.914 17.1814 142.754 16.668 142.434 16.308C142.114 15.948 141.661 15.768 141.074 15.768C140.488 15.768 140.034 15.948 139.714 16.308C139.394 16.668 139.234 17.1814 139.234 17.848V19.988C139.234 20.6547 139.394 21.168 139.714 21.528C140.034 21.888 140.488 22.068 141.074 22.068Z"/>
<path d="M148.104 13.668H151.064V15.428H151.163C151.31 14.8414 151.643 14.3614 152.163 13.988C152.697 13.6147 153.304 13.428 153.984 13.428C155.317 13.428 156.323 13.8947 157.003 14.828C157.683 15.7614 158.023 17.1214 158.023 18.908C158.023 20.6947 157.683 22.0614 157.003 23.008C156.323 23.9414 155.317 24.408 153.984 24.408C153.637 24.408 153.31 24.3547 153.003 24.248C152.697 24.1547 152.417 24.0214 152.163 23.848C151.923 23.6614 151.717 23.448 151.544 23.208C151.37 22.9547 151.243 22.688 151.163 22.408H151.064V28.168H148.104V13.668ZM153.003 22.008C153.563 22.008 154.023 21.8147 154.383 21.428C154.757 21.028 154.943 20.4947 154.943 19.828V18.008C154.943 17.3414 154.757 16.8147 154.383 16.428C154.023 16.028 153.563 15.828 153.003 15.828C152.443 15.828 151.977 15.968 151.604 16.248C151.244 16.5147 151.064 16.888 151.064 17.368V20.468C151.064 20.948 151.244 21.328 151.604 21.608C151.977 21.8747 152.443 22.008 153.003 22.008Z"/>
</mask>
<path d="M21.704 9.51203H21.608L19.976 12.776L15.624 20.68L11.368 12.808L9.672 9.28803H9.576V24.168H5V1.83203H10.152L15.624 12.296H15.688L21.096 1.83203H26.28V24.168H21.704V9.51203Z" fill="url(#paint0_linear_31112_1626)"/>
<path d="M37.7788 24.552C36.5414 24.552 35.4321 24.3494 34.4508 23.944C33.4908 23.5387 32.6694 22.952 31.9867 22.184C31.3254 21.416 30.8134 20.488 30.4508 19.4C30.0881 18.312 29.9067 17.096 29.9067 15.752C29.9067 14.408 30.0881 13.192 30.4508 12.104C30.8134 11.016 31.3254 10.0987 31.9867 9.35203C32.6694 8.58403 33.4908 7.99736 34.4508 7.59203C35.4321 7.1867 36.5414 6.98403 37.7788 6.98403C39.0161 6.98403 40.1147 7.1867 41.0747 7.59203C42.0561 7.99736 42.8774 8.58403 43.5387 9.35203C44.2214 10.0987 44.7441 11.016 45.1068 12.104C45.4694 13.192 45.6507 14.408 45.6507 15.752C45.6507 17.096 45.4694 18.312 45.1068 19.4C44.7441 20.488 44.2214 21.416 43.5387 22.184C42.8774 22.952 42.0561 23.5387 41.0747 23.944C40.1147 24.3494 39.0161 24.552 37.7788 24.552ZM37.7788 20.808C38.7174 20.808 39.4427 20.52 39.9548 19.944C40.4667 19.368 40.7228 18.5467 40.7228 17.48V14.056C40.7228 12.9894 40.4667 12.168 39.9548 11.592C39.4427 11.016 38.7174 10.728 37.7788 10.728C36.8401 10.728 36.1148 11.016 35.6028 11.592C35.0908 12.168 34.8348 12.9894 34.8348 14.056V17.48C34.8348 18.5467 35.0908 19.368 35.6028 19.944C36.1148 20.52 36.8401 20.808 37.7788 20.808Z" fill="url(#paint1_linear_31112_1626)"/>
<path d="M54.7257 24.168C53.0831 24.168 51.8351 23.752 50.9818 22.92C50.1498 22.088 49.7337 20.872 49.7337 19.272V11.048H47.3657V7.36803H48.5498C49.1898 7.36803 49.6271 7.2187 49.8618 6.92003C50.0964 6.60003 50.2137 6.15203 50.2137 5.57603V2.82403H54.4697V7.36803H57.7977V11.048H54.4697V20.488H57.5418V24.168H54.7257Z" fill="url(#paint2_linear_31112_1626)"/>
<path d="M67.7788 24.552C66.5414 24.552 65.4321 24.3494 64.4507 23.944C63.4907 23.5387 62.6694 22.952 61.9868 22.184C61.3254 21.416 60.8134 20.488 60.4507 19.4C60.0881 18.312 59.9067 17.096 59.9067 15.752C59.9067 14.408 60.0881 13.192 60.4507 12.104C60.8134 11.016 61.3254 10.0987 61.9868 9.35203C62.6694 8.58403 63.4907 7.99736 64.4507 7.59203C65.4321 7.1867 66.5414 6.98403 67.7788 6.98403C69.0161 6.98403 70.1148 7.1867 71.0748 7.59203C72.0561 7.99736 72.8774 8.58403 73.5387 9.35203C74.2214 10.0987 74.7441 11.016 75.1068 12.104C75.4694 13.192 75.6507 14.408 75.6507 15.752C75.6507 17.096 75.4694 18.312 75.1068 19.4C74.7441 20.488 74.2214 21.416 73.5387 22.184C72.8774 22.952 72.0561 23.5387 71.0748 23.944C70.1148 24.3494 69.0161 24.552 67.7788 24.552ZM67.7788 20.808C68.7174 20.808 69.4427 20.52 69.9548 19.944C70.4667 19.368 70.7227 18.5467 70.7227 17.48V14.056C70.7227 12.9894 70.4667 12.168 69.9548 11.592C69.4427 11.016 68.7174 10.728 67.7788 10.728C66.8401 10.728 66.1147 11.016 65.6027 11.592C65.0907 12.168 64.8348 12.9894 64.8348 14.056V17.48C64.8348 18.5467 65.0907 19.368 65.6027 19.944C66.1147 20.52 66.8401 20.808 67.7788 20.808Z" fill="url(#paint3_linear_31112_1626)"/>
<path d="M79.0253 24.168V7.36803H83.7613V11.016H83.9212C84.0066 10.5467 84.1559 10.0987 84.3692 9.67203C84.5826 9.22403 84.8599 8.82936 85.2012 8.48803C85.5639 8.1467 85.9906 7.88003 86.4812 7.68803C86.9719 7.4747 87.5479 7.36803 88.2093 7.36803H89.0413V11.784H87.8573C86.4706 11.784 85.4359 11.9654 84.7533 12.328C84.0919 12.6907 83.7613 13.3627 83.7613 14.344V24.168H79.0253Z" fill="url(#paint4_linear_31112_1626)"/>
<path d="M97.6588 24.552C96.0374 24.552 94.6721 24.296 93.5628 23.784C92.4534 23.2507 91.4614 22.504 90.5867 21.544L93.3708 18.728C93.9681 19.3894 94.6294 19.912 95.3548 20.296C96.0801 20.68 96.9014 20.872 97.8187 20.872C98.7574 20.872 99.4081 20.7334 99.7708 20.456C100.133 20.1574 100.315 19.7627 100.315 19.272C100.315 18.4827 99.7494 18.0134 98.6188 17.864L96.7948 17.64C93.0188 17.1707 91.1308 15.4427 91.1308 12.456C91.1308 11.6454 91.2801 10.9094 91.5788 10.248C91.8988 9.56536 92.3361 8.98936 92.8907 8.52003C93.4667 8.02936 94.1494 7.65603 94.9388 7.40003C95.7494 7.1227 96.6561 6.98403 97.6588 6.98403C98.5334 6.98403 99.3014 7.04803 99.9628 7.17603C100.645 7.2827 101.243 7.45336 101.755 7.68803C102.288 7.90136 102.768 8.1787 103.195 8.52003C103.643 8.84003 104.08 9.2027 104.507 9.60803L101.787 12.392C101.253 11.8587 100.645 11.4427 99.9628 11.144C99.3014 10.824 98.6187 10.664 97.9147 10.664C97.1041 10.664 96.5281 10.792 96.1868 11.048C95.8454 11.304 95.6748 11.6454 95.6748 12.072C95.6748 12.52 95.7921 12.872 96.0267 13.128C96.2827 13.3627 96.7521 13.5334 97.4348 13.64L99.3228 13.896C103.013 14.3867 104.859 16.072 104.859 18.952C104.859 19.7627 104.688 20.5094 104.347 21.192C104.005 21.8747 103.515 22.472 102.875 22.984C102.256 23.4747 101.499 23.8587 100.603 24.136C99.7281 24.4134 98.7468 24.552 97.6588 24.552Z" fill="url(#paint5_linear_31112_1626)"/>
<path d="M118.382 24.408C117.369 24.408 116.516 24.248 115.822 23.928C115.129 23.5947 114.509 23.128 113.962 22.528L115.702 20.768C116.076 21.1814 116.489 21.508 116.942 21.748C117.396 21.988 117.909 22.108 118.482 22.108C119.069 22.108 119.476 22.0214 119.702 21.848C119.929 21.6614 120.042 21.4147 120.042 21.108C120.042 20.6147 119.689 20.3214 118.982 20.228L117.842 20.088C115.482 19.7947 114.302 18.7147 114.302 16.848C114.302 16.3414 114.396 15.8814 114.582 15.468C114.782 15.0414 115.056 14.6814 115.402 14.388C115.762 14.0814 116.189 13.848 116.682 13.688C117.189 13.5147 117.756 13.428 118.382 13.428C118.929 13.428 119.409 13.468 119.822 13.548C120.249 13.6147 120.622 13.7214 120.942 13.868C121.276 14.0014 121.576 14.1747 121.842 14.388C122.122 14.588 122.396 14.8147 122.662 15.068L120.962 16.808C120.629 16.4747 120.249 16.2147 119.822 16.028C119.409 15.828 118.982 15.728 118.542 15.728C118.036 15.728 117.676 15.808 117.462 15.968C117.249 16.128 117.142 16.3414 117.142 16.608C117.142 16.888 117.216 17.108 117.362 17.268C117.522 17.4147 117.816 17.5214 118.242 17.588L119.422 17.748C121.729 18.0547 122.882 19.108 122.882 20.908C122.882 21.4147 122.776 21.8814 122.562 22.308C122.349 22.7347 122.042 23.108 121.642 23.428C121.256 23.7347 120.782 23.9747 120.222 24.148C119.676 24.3214 119.062 24.408 118.382 24.408Z" fill="url(#paint6_linear_31112_1626)"/>
<path d="M124.9 9.36803H127.86V15.448H127.98C128.167 14.9014 128.494 14.428 128.96 14.028C129.427 13.628 130.074 13.428 130.9 13.428C131.98 13.428 132.794 13.788 133.34 14.508C133.9 15.228 134.18 16.2547 134.18 17.588V24.168H131.22V17.828C131.22 17.148 131.114 16.648 130.9 16.328C130.687 15.9947 130.307 15.828 129.76 15.828C129.52 15.828 129.287 15.8614 129.06 15.928C128.834 15.9814 128.627 16.0747 128.44 16.208C128.267 16.3414 128.127 16.508 128.02 16.708C127.914 16.8947 127.86 17.1147 127.86 17.368V24.168H124.9V9.36803Z" fill="url(#paint7_linear_31112_1626)"/>
<path d="M141.074 24.408C140.301 24.408 139.608 24.2814 138.994 24.028C138.394 23.7747 137.881 23.408 137.454 22.928C137.041 22.448 136.721 21.868 136.494 21.188C136.268 20.508 136.154 19.748 136.154 18.908C136.154 18.068 136.268 17.308 136.494 16.628C136.721 15.948 137.041 15.3747 137.454 14.908C137.881 14.428 138.394 14.0614 138.994 13.808C139.608 13.5547 140.301 13.428 141.074 13.428C141.848 13.428 142.534 13.5547 143.134 13.808C143.748 14.0614 144.261 14.428 144.674 14.908C145.101 15.3747 145.428 15.948 145.654 16.628C145.881 17.308 145.994 18.068 145.994 18.908C145.994 19.748 145.881 20.508 145.654 21.188C145.428 21.868 145.101 22.448 144.674 22.928C144.261 23.408 143.748 23.7747 143.134 24.028C142.534 24.2814 141.848 24.408 141.074 24.408ZM141.074 22.068C141.661 22.068 142.114 21.888 142.434 21.528C142.754 21.168 142.914 20.6547 142.914 19.988V17.848C142.914 17.1814 142.754 16.668 142.434 16.308C142.114 15.948 141.661 15.768 141.074 15.768C140.488 15.768 140.034 15.948 139.714 16.308C139.394 16.668 139.234 17.1814 139.234 17.848V19.988C139.234 20.6547 139.394 21.168 139.714 21.528C140.034 21.888 140.488 22.068 141.074 22.068Z" fill="url(#paint8_linear_31112_1626)"/>
<path d="M148.104 13.668H151.064V15.428H151.163C151.31 14.8414 151.643 14.3614 152.163 13.988C152.697 13.6147 153.304 13.428 153.984 13.428C155.317 13.428 156.323 13.8947 157.003 14.828C157.683 15.7614 158.023 17.1214 158.023 18.908C158.023 20.6947 157.683 22.0614 157.003 23.008C156.323 23.9414 155.317 24.408 153.984 24.408C153.637 24.408 153.31 24.3547 153.003 24.248C152.697 24.1547 152.417 24.0214 152.163 23.848C151.923 23.6614 151.717 23.448 151.544 23.208C151.37 22.9547 151.243 22.688 151.163 22.408H151.064V28.168H148.104V13.668ZM153.003 22.008C153.563 22.008 154.023 21.8147 154.383 21.428C154.757 21.028 154.943 20.4947 154.943 19.828V18.008C154.943 17.3414 154.757 16.8147 154.383 16.428C154.023 16.028 153.563 15.828 153.003 15.828C152.443 15.828 151.977 15.968 151.604 16.248C151.244 16.5147 151.064 16.888 151.064 17.368V20.468C151.064 20.948 151.244 21.328 151.604 21.608C151.977 21.8747 152.443 22.008 153.003 22.008Z" fill="url(#paint9_linear_31112_1626)"/>
<path d="M21.704 9.51203H21.608L19.976 12.776L15.624 20.68L11.368 12.808L9.672 9.28803H9.576V24.168H5V1.83203H10.152L15.624 12.296H15.688L21.096 1.83203H26.28V24.168H21.704V9.51203Z" stroke="black" stroke-width="2" mask="url(#path-1-outside-1_31112_1626)"/>
<path d="M37.7788 24.552C36.5414 24.552 35.4321 24.3494 34.4508 23.944C33.4908 23.5387 32.6694 22.952 31.9867 22.184C31.3254 21.416 30.8134 20.488 30.4508 19.4C30.0881 18.312 29.9067 17.096 29.9067 15.752C29.9067 14.408 30.0881 13.192 30.4508 12.104C30.8134 11.016 31.3254 10.0987 31.9867 9.35203C32.6694 8.58403 33.4908 7.99736 34.4508 7.59203C35.4321 7.1867 36.5414 6.98403 37.7788 6.98403C39.0161 6.98403 40.1147 7.1867 41.0747 7.59203C42.0561 7.99736 42.8774 8.58403 43.5387 9.35203C44.2214 10.0987 44.7441 11.016 45.1068 12.104C45.4694 13.192 45.6507 14.408 45.6507 15.752C45.6507 17.096 45.4694 18.312 45.1068 19.4C44.7441 20.488 44.2214 21.416 43.5387 22.184C42.8774 22.952 42.0561 23.5387 41.0747 23.944C40.1147 24.3494 39.0161 24.552 37.7788 24.552ZM37.7788 20.808C38.7174 20.808 39.4427 20.52 39.9548 19.944C40.4667 19.368 40.7228 18.5467 40.7228 17.48V14.056C40.7228 12.9894 40.4667 12.168 39.9548 11.592C39.4427 11.016 38.7174 10.728 37.7788 10.728C36.8401 10.728 36.1148 11.016 35.6028 11.592C35.0908 12.168 34.8348 12.9894 34.8348 14.056V17.48C34.8348 18.5467 35.0908 19.368 35.6028 19.944C36.1148 20.52 36.8401 20.808 37.7788 20.808Z" stroke="black" stroke-width="2" mask="url(#path-1-outside-1_31112_1626)"/>
<path d="M54.7257 24.168C53.0831 24.168 51.8351 23.752 50.9818 22.92C50.1498 22.088 49.7337 20.872 49.7337 19.272V11.048H47.3657V7.36803H48.5498C49.1898 7.36803 49.6271 7.2187 49.8618 6.92003C50.0964 6.60003 50.2137 6.15203 50.2137 5.57603V2.82403H54.4697V7.36803H57.7977V11.048H54.4697V20.488H57.5418V24.168H54.7257Z" stroke="black" stroke-width="2" mask="url(#path-1-outside-1_31112_1626)"/>
<path d="M67.7788 24.552C66.5414 24.552 65.4321 24.3494 64.4507 23.944C63.4907 23.5387 62.6694 22.952 61.9868 22.184C61.3254 21.416 60.8134 20.488 60.4507 19.4C60.0881 18.312 59.9067 17.096 59.9067 15.752C59.9067 14.408 60.0881 13.192 60.4507 12.104C60.8134 11.016 61.3254 10.0987 61.9868 9.35203C62.6694 8.58403 63.4907 7.99736 64.4507 7.59203C65.4321 7.1867 66.5414 6.98403 67.7788 6.98403C69.0161 6.98403 70.1148 7.1867 71.0748 7.59203C72.0561 7.99736 72.8774 8.58403 73.5387 9.35203C74.2214 10.0987 74.7441 11.016 75.1068 12.104C75.4694 13.192 75.6507 14.408 75.6507 15.752C75.6507 17.096 75.4694 18.312 75.1068 19.4C74.7441 20.488 74.2214 21.416 73.5387 22.184C72.8774 22.952 72.0561 23.5387 71.0748 23.944C70.1148 24.3494 69.0161 24.552 67.7788 24.552ZM67.7788 20.808C68.7174 20.808 69.4427 20.52 69.9548 19.944C70.4667 19.368 70.7227 18.5467 70.7227 17.48V14.056C70.7227 12.9894 70.4667 12.168 69.9548 11.592C69.4427 11.016 68.7174 10.728 67.7788 10.728C66.8401 10.728 66.1147 11.016 65.6027 11.592C65.0907 12.168 64.8348 12.9894 64.8348 14.056V17.48C64.8348 18.5467 65.0907 19.368 65.6027 19.944C66.1147 20.52 66.8401 20.808 67.7788 20.808Z" stroke="black" stroke-width="2" mask="url(#path-1-outside-1_31112_1626)"/>
<path d="M79.0253 24.168V7.36803H83.7613V11.016H83.9212C84.0066 10.5467 84.1559 10.0987 84.3692 9.67203C84.5826 9.22403 84.8599 8.82936 85.2012 8.48803C85.5639 8.1467 85.9906 7.88003 86.4812 7.68803C86.9719 7.4747 87.5479 7.36803 88.2093 7.36803H89.0413V11.784H87.8573C86.4706 11.784 85.4359 11.9654 84.7533 12.328C84.0919 12.6907 83.7613 13.3627 83.7613 14.344V24.168H79.0253Z" stroke="black" stroke-width="2" mask="url(#path-1-outside-1_31112_1626)"/>
<path d="M97.6588 24.552C96.0374 24.552 94.6721 24.296 93.5628 23.784C92.4534 23.2507 91.4614 22.504 90.5867 21.544L93.3708 18.728C93.9681 19.3894 94.6294 19.912 95.3548 20.296C96.0801 20.68 96.9014 20.872 97.8187 20.872C98.7574 20.872 99.4081 20.7334 99.7708 20.456C100.133 20.1574 100.315 19.7627 100.315 19.272C100.315 18.4827 99.7494 18.0134 98.6188 17.864L96.7948 17.64C93.0188 17.1707 91.1308 15.4427 91.1308 12.456C91.1308 11.6454 91.2801 10.9094 91.5788 10.248C91.8988 9.56536 92.3361 8.98936 92.8907 8.52003C93.4667 8.02936 94.1494 7.65603 94.9388 7.40003C95.7494 7.1227 96.6561 6.98403 97.6588 6.98403C98.5334 6.98403 99.3014 7.04803 99.9628 7.17603C100.645 7.2827 101.243 7.45336 101.755 7.68803C102.288 7.90136 102.768 8.1787 103.195 8.52003C103.643 8.84003 104.08 9.2027 104.507 9.60803L101.787 12.392C101.253 11.8587 100.645 11.4427 99.9628 11.144C99.3014 10.824 98.6187 10.664 97.9147 10.664C97.1041 10.664 96.5281 10.792 96.1868 11.048C95.8454 11.304 95.6748 11.6454 95.6748 12.072C95.6748 12.52 95.7921 12.872 96.0267 13.128C96.2827 13.3627 96.7521 13.5334 97.4348 13.64L99.3228 13.896C103.013 14.3867 104.859 16.072 104.859 18.952C104.859 19.7627 104.688 20.5094 104.347 21.192C104.005 21.8747 103.515 22.472 102.875 22.984C102.256 23.4747 101.499 23.8587 100.603 24.136C99.7281 24.4134 98.7468 24.552 97.6588 24.552Z" stroke="black" stroke-width="2" mask="url(#path-1-outside-1_31112_1626)"/>
<path d="M118.382 24.408C117.369 24.408 116.516 24.248 115.822 23.928C115.129 23.5947 114.509 23.128 113.962 22.528L115.702 20.768C116.076 21.1814 116.489 21.508 116.942 21.748C117.396 21.988 117.909 22.108 118.482 22.108C119.069 22.108 119.476 22.0214 119.702 21.848C119.929 21.6614 120.042 21.4147 120.042 21.108C120.042 20.6147 119.689 20.3214 118.982 20.228L117.842 20.088C115.482 19.7947 114.302 18.7147 114.302 16.848C114.302 16.3414 114.396 15.8814 114.582 15.468C114.782 15.0414 115.056 14.6814 115.402 14.388C115.762 14.0814 116.189 13.848 116.682 13.688C117.189 13.5147 117.756 13.428 118.382 13.428C118.929 13.428 119.409 13.468 119.822 13.548C120.249 13.6147 120.622 13.7214 120.942 13.868C121.276 14.0014 121.576 14.1747 121.842 14.388C122.122 14.588 122.396 14.8147 122.662 15.068L120.962 16.808C120.629 16.4747 120.249 16.2147 119.822 16.028C119.409 15.828 118.982 15.728 118.542 15.728C118.036 15.728 117.676 15.808 117.462 15.968C117.249 16.128 117.142 16.3414 117.142 16.608C117.142 16.888 117.216 17.108 117.362 17.268C117.522 17.4147 117.816 17.5214 118.242 17.588L119.422 17.748C121.729 18.0547 122.882 19.108 122.882 20.908C122.882 21.4147 122.776 21.8814 122.562 22.308C122.349 22.7347 122.042 23.108 121.642 23.428C121.256 23.7347 120.782 23.9747 120.222 24.148C119.676 24.3214 119.062 24.408 118.382 24.408Z" stroke="black" stroke-width="2" mask="url(#path-1-outside-1_31112_1626)"/>
<path d="M124.9 9.36803H127.86V15.448H127.98C128.167 14.9014 128.494 14.428 128.96 14.028C129.427 13.628 130.074 13.428 130.9 13.428C131.98 13.428 132.794 13.788 133.34 14.508C133.9 15.228 134.18 16.2547 134.18 17.588V24.168H131.22V17.828C131.22 17.148 131.114 16.648 130.9 16.328C130.687 15.9947 130.307 15.828 129.76 15.828C129.52 15.828 129.287 15.8614 129.06 15.928C128.834 15.9814 128.627 16.0747 128.44 16.208C128.267 16.3414 128.127 16.508 128.02 16.708C127.914 16.8947 127.86 17.1147 127.86 17.368V24.168H124.9V9.36803Z" stroke="black" stroke-width="2" mask="url(#path-1-outside-1_31112_1626)"/>
<path d="M141.074 24.408C140.301 24.408 139.608 24.2814 138.994 24.028C138.394 23.7747 137.881 23.408 137.454 22.928C137.041 22.448 136.721 21.868 136.494 21.188C136.268 20.508 136.154 19.748 136.154 18.908C136.154 18.068 136.268 17.308 136.494 16.628C136.721 15.948 137.041 15.3747 137.454 14.908C137.881 14.428 138.394 14.0614 138.994 13.808C139.608 13.5547 140.301 13.428 141.074 13.428C141.848 13.428 142.534 13.5547 143.134 13.808C143.748 14.0614 144.261 14.428 144.674 14.908C145.101 15.3747 145.428 15.948 145.654 16.628C145.881 17.308 145.994 18.068 145.994 18.908C145.994 19.748 145.881 20.508 145.654 21.188C145.428 21.868 145.101 22.448 144.674 22.928C144.261 23.408 143.748 23.7747 143.134 24.028C142.534 24.2814 141.848 24.408 141.074 24.408ZM141.074 22.068C141.661 22.068 142.114 21.888 142.434 21.528C142.754 21.168 142.914 20.6547 142.914 19.988V17.848C142.914 17.1814 142.754 16.668 142.434 16.308C142.114 15.948 141.661 15.768 141.074 15.768C140.488 15.768 140.034 15.948 139.714 16.308C139.394 16.668 139.234 17.1814 139.234 17.848V19.988C139.234 20.6547 139.394 21.168 139.714 21.528C140.034 21.888 140.488 22.068 141.074 22.068Z" stroke="black" stroke-width="2" mask="url(#path-1-outside-1_31112_1626)"/>
<path d="M148.104 13.668H151.064V15.428H151.163C151.31 14.8414 151.643 14.3614 152.163 13.988C152.697 13.6147 153.304 13.428 153.984 13.428C155.317 13.428 156.323 13.8947 157.003 14.828C157.683 15.7614 158.023 17.1214 158.023 18.908C158.023 20.6947 157.683 22.0614 157.003 23.008C156.323 23.9414 155.317 24.408 153.984 24.408C153.637 24.408 153.31 24.3547 153.003 24.248C152.697 24.1547 152.417 24.0214 152.163 23.848C151.923 23.6614 151.717 23.448 151.544 23.208C151.37 22.9547 151.243 22.688 151.163 22.408H151.064V28.168H148.104V13.668ZM153.003 22.008C153.563 22.008 154.023 21.8147 154.383 21.428C154.757 21.028 154.943 20.4947 154.943 19.828V18.008C154.943 17.3414 154.757 16.8147 154.383 16.428C154.023 16.028 153.563 15.828 153.003 15.828C152.443 15.828 151.977 15.968 151.604 16.248C151.244 16.5147 151.064 16.888 151.064 17.368V20.468C151.064 20.948 151.244 21.328 151.604 21.608C151.977 21.8747 152.443 22.008 153.003 22.008Z" stroke="black" stroke-width="2" mask="url(#path-1-outside-1_31112_1626)"/>
</g>
<defs>
<filter id="filter0_d_31112_1626" x="0" y="0.832031" width="163.023" height="36.3359" filterUnits="userSpaceOnUse" color-interpolation-filters="sRGB">
<feFlood flood-opacity="0" result="BackgroundImageFix"/>
<feColorMatrix in="SourceAlpha" type="matrix" values="0 0 0 0 0 0 0 0 0 0 0 0 0 0 0 0 0 0 127 0" result="hardAlpha"/>
<feOffset dy="4"/>
<feGaussianBlur stdDeviation="2"/>
<feComposite in2="hardAlpha" operator="out"/>
<feColorMatrix type="matrix" values="0 0 0 0 0 0 0 0 0 0 0 0 0 0 0 0 0 0 0.25 0"/>
<feBlend mode="normal" in2="BackgroundImageFix" result="effect1_dropShadow_31112_1626"/>
<feBlend mode="normal" in="SourceGraphic" in2="effect1_dropShadow_31112_1626" result="shape"/>
</filter>
<linearGradient id="paint0_linear_31112_1626" x1="2.53601" y1="33.168" x2="159.536" y2="33.168" gradientUnits="userSpaceOnUse">
<stop stop-color="#0B0D0D"/>
<stop offset="1" stop-color="#4529E6"/>
</linearGradient>
<linearGradient id="paint1_linear_31112_1626" x1="2.53601" y1="33.168" x2="159.536" y2="33.168" gradientUnits="userSpaceOnUse">
<stop stop-color="#0B0D0D"/>
<stop offset="1" stop-color="#4529E6"/>
</linearGradient>
<linearGradient id="paint2_linear_31112_1626" x1="2.53601" y1="33.168" x2="159.536" y2="33.168" gradientUnits="userSpaceOnUse">
<stop stop-color="#0B0D0D"/>
<stop offset="1" stop-color="#4529E6"/>
</linearGradient>
<linearGradient id="paint3_linear_31112_1626" x1="2.53601" y1="33.168" x2="159.536" y2="33.168" gradientUnits="userSpaceOnUse">
<stop stop-color="#0B0D0D"/>
<stop offset="1" stop-color="#4529E6"/>
</linearGradient>
<linearGradient id="paint4_linear_31112_1626" x1="2.53601" y1="33.168" x2="159.536" y2="33.168" gradientUnits="userSpaceOnUse">
<stop stop-color="#0B0D0D"/>
<stop offset="1" stop-color="#4529E6"/>
</linearGradient>
<linearGradient id="paint5_linear_31112_1626" x1="2.53601" y1="33.168" x2="159.536" y2="33.168" gradientUnits="userSpaceOnUse">
<stop stop-color="#0B0D0D"/>
<stop offset="1" stop-color="#4529E6"/>
</linearGradient>
<linearGradient id="paint6_linear_31112_1626" x1="2.53601" y1="33.168" x2="159.536" y2="33.168" gradientUnits="userSpaceOnUse">
<stop stop-color="#0B0D0D"/>
<stop offset="1" stop-color="#4529E6"/>
</linearGradient>
<linearGradient id="paint7_linear_31112_1626" x1="2.53601" y1="33.168" x2="159.536" y2="33.168" gradientUnits="userSpaceOnUse">
<stop stop-color="#0B0D0D"/>
<stop offset="1" stop-color="#4529E6"/>
</linearGradient>
<linearGradient id="paint8_linear_31112_1626" x1="2.53601" y1="33.168" x2="159.536" y2="33.168" gradientUnits="userSpaceOnUse">
<stop stop-color="#0B0D0D"/>
<stop offset="1" stop-color="#4529E6"/>
</linearGradient>
<linearGradient id="paint9_linear_31112_1626" x1="2.53601" y1="33.168" x2="159.536" y2="33.168" gradientUnits="userSpaceOnUse">
<stop stop-color="#0B0D0D"/>
<stop offset="1" stop-color="#4529E6"/>
</linearGradient>
</defs>
</svg>
